<?xml version="1.0" encoding="utf-8"?>
<!DOCTYPE svg PUBLIC "-//W3C//DTD SVG 1.1//EN" "http://www.w3.org/Graphics/SVG/1.1/DTD/svg11.dtd"[]>
<?xml-stylesheet type='text/css' href='../Content/MapStyle.css'?>
<svg version="1.1" id="svgdoc" xmlns="http://www.w3.org/2000/svg" xmlns:xlink="http://www.w3.org/1999/xlink" width="1024" height="768" viewBox="0 0 1024 768" style="stroke-width: 0px; background: #111111;" onload="init(evt)">
  <g id="map">
    <defs>
      <symbol id="def30004964">
        <a xlink:href="http://evemaps.dotlan.net/system/1E-W5I" class="sys link-5-30004964" target="_top">
          <rect id="rect30004964" x="4" y="3.5" rx="11" ry="11" width="50" height="22" class="s" />
          <text x="28" y="14" class="ss" text-anchor="middle">1E-W5I</text>
        </a>
        <rect x="49.6" y="9.5" height="11" width="11" class="om" />
        <polygon points="51.8,15 58.4,11.7 58.4,18.3 51.8,15" class="o1" />
        <rect x="49.6" y="9.5" height="11" width="11" class="oo" />
      </symbol>
      <symbol id="def30004966">
        <a xlink:href="http://evemaps.dotlan.net/system/MVUO-F" class="sys link-5-30004966" target="_top">
          <rect id="rect30004966" x="4" y="3.5" rx="11" ry="11" width="50" height="22" class="s" />
          <text x="28" y="14" class="ss" text-anchor="middle">MVUO-F</text>
        </a>
        <rect x="49.6" y="9.5" height="11" width="11" class="oc" />
        <polygon points="51.8,15 58.4,11.7 58.4,18.3 51.8,15" class="o1" />
        <rect x="49.6" y="9.5" height="11" width="11" class="oo" />
      </symbol>
      <symbol id="def30004963">
        <a xlink:href="http://evemaps.dotlan.net/system/RYQC-I" class="sys link-5-30004963" target="_top">
          <rect id="rect30004963" x="4" y="3.5" rx="11" ry="11" width="50" height="22" class="s" />
          <text x="28" y="14" class="ss" text-anchor="middle">RYQC-I</text>
        </a>
      </symbol>
      <symbol id="def30004965">
        <a xlink:href="http://evemaps.dotlan.net/system/Z-M5A1" class="sys link-5-30004965" target="_top">
          <rect id="rect30004965" x="4" y="3.5" rx="11" ry="11" width="50" height="22" class="s" />
          <text x="28" y="14" class="ss" text-anchor="middle">Z-M5A1</text>
        </a>
        <rect x="49.6" y="9.5" height="11" width="11" class="om" />
        <polygon points="51.8,15 58.4,11.7 58.4,18.3 51.8,15" class="o1" />
        <rect x="49.6" y="9.5" height="11" width="11" class="oo" />
      </symbol>
      <symbol id="def30004962">
        <a xlink:href="http://evemaps.dotlan.net/system/G-Q5JU" class="sys link-5-30004962" target="_top">
          <rect id="rect30004962" x="4" y="3.5" rx="11" ry="11" width="50" height="22" class="s" />
          <text x="28" y="14" class="ss" text-anchor="middle">G-Q5JU</text>
        </a>
        <rect x="49.6" y="9.5" height="11" width="11" class="o" />
        <polygon points="60.6,9.5 55.1,15 60.6,20.5 60.6,9.5" class="v2" />
        <polygon points="60.6,20.5 55.1,15 49.6,20.5 60.6,20.5" class="v3" />
        <polygon points="49.6,20.5 55.1,15 49.6,9.5 49.6,20.5" class="v4" />
        <rect x="52.9" y="12.8" height="4.4" width="4.4" class="o2" />
        <rect x="49.6" y="9.5" height="11" width="11" class="oo" />
      </symbol>
      <symbol id="def30004961">
        <a xlink:href="http://evemaps.dotlan.net/system/PA-VE3" class="sys link-5-30004961" target="_top">
          <rect id="rect30004961" x="4" y="3.5" rx="11" ry="11" width="50" height="22" class="s" />
          <text x="28" y="14" class="ss" text-anchor="middle">PA-VE3</text>
        </a>
        <rect x="49.6" y="9.5" height="11" width="11" class="oa" />
        <polygon points="51.8,15 58.4,11.7 58.4,18.3 51.8,15" class="o1" />
        <rect x="49.6" y="9.5" height="11" width="11" class="oo" />
      </symbol>
      <symbol id="def30004959">
        <a xlink:href="http://evemaps.dotlan.net/system/E2-RDQ" class="sys link-5-30004959" target="_top">
          <rect id="rect30004959" x="4" y="3.5" rx="11" ry="11" width="50" height="22" class="s" />
          <text x="28" y="14" class="ss" text-anchor="middle">E2-RDQ</text>
        </a>
        <rect x="49.6" y="9.5" height="11" width="11" class="om" />
        <polygon points="51.8,15 58.4,11.7 58.4,18.3 51.8,15" class="o1" />
        <rect x="49.6" y="9.5" height="11" width="11" class="oo" />
      </symbol>
      <symbol id="def30004958">
        <a xlink:href="http://evemaps.dotlan.net/system/OY0-2T" class="sys link-5-30004958" target="_top">
          <rect id="rect30004958" x="4" y="3.5" rx="11" ry="11" width="50" height="22" class="s" />
          <text x="28" y="14" class="ss" text-anchor="middle">OY0-2T</text>
        </a>
      </symbol>
      <symbol id="def30004953">
        <a xlink:href="http://evemaps.dotlan.net/system/RJ3H-0" class="sys link-5-30004953" target="_top">
          <rect id="rect30004953" x="4" y="3.5" rx="11" ry="11" width="50" height="22" class="s" />
          <text x="28" y="14" class="ss" text-anchor="middle">RJ3H-0</text>
        </a>
      </symbol>
      <symbol id="def30004960">
        <a xlink:href="http://evemaps.dotlan.net/system/TN25-J" class="sys link-5-30004960" target="_top">
          <rect id="rect30004960" x="4" y="3.5" rx="11" ry="11" width="50" height="22" class="s" />
          <text x="28" y="14" class="ss" text-anchor="middle">TN25-J</text>
        </a>
        <rect x="49.6" y="9.5" height="11" width="11" class="om" />
        <polygon points="51.8,15 58.4,11.7 58.4,18.3 51.8,15" class="o1" />
        <rect x="49.6" y="9.5" height="11" width="11" class="oo" />
      </symbol>
      <symbol id="def30004951">
        <a xlink:href="http://evemaps.dotlan.net/system/3OP-3E" class="sys link-5-30004951" target="_top">
          <rect id="rect30004951" x="4" y="3.5" rx="11" ry="11" width="50" height="22" class="s" />
          <text x="28" y="14" class="ss" text-anchor="middle">3OP-3E</text>
        </a>
      </symbol>
      <symbol id="def30004956">
        <a xlink:href="http://evemaps.dotlan.net/system/HIX4-H" class="sys link-5-30004956" target="_top">
          <rect id="rect30004956" x="4" y="3.5" rx="11" ry="11" width="50" height="22" class="s" />
          <text x="28" y="14" class="ss" text-anchor="middle">HIX4-H</text>
        </a>
        <rect x="49.6" y="9.5" height="11" width="11" class="og" />
        <polygon points="51.8,15 58.4,11.7 58.4,18.3 51.8,15" class="o1" />
        <rect x="49.6" y="9.5" height="11" width="11" class="oo" />
      </symbol>
      <symbol id="def30004952">
        <a xlink:href="http://evemaps.dotlan.net/system/JZL-VB" class="sys link-5-30004952" target="_top">
          <rect id="rect30004952" x="4" y="3.5" rx="11" ry="11" width="50" height="22" class="s" />
          <text x="28" y="14" class="ss" text-anchor="middle">JZL-VB</text>
        </a>
      </symbol>
      <symbol id="def30004957">
        <a xlink:href="http://evemaps.dotlan.net/system/GR-J8B" class="sys link-5-30004957" target="_top">
          <rect id="ice30004957" x="1" y="0.5" rx="14" ry="13" width="56" height="28" class="i" />
          <rect id="rect30004957" x="4" y="3.5" rx="11" ry="11" width="50" height="22" class="s" />
          <text x="28" y="14" class="ss" text-anchor="middle">GR-J8B</text>
        </a>
        <rect x="49.6" y="9.5" height="11" width="11" class="oa" />
        <polygon points="51.8,15 58.4,11.7 58.4,18.3 51.8,15" class="o1" />
        <rect x="49.6" y="9.5" height="11" width="11" class="oo" />
      </symbol>
      <symbol id="def30004955">
        <a xlink:href="http://evemaps.dotlan.net/system/ZU-MS3" class="sys link-5-30004955" target="_top">
          <rect id="rect30004955" x="4" y="3.5" rx="11" ry="11" width="50" height="22" class="s" />
          <text x="28" y="14" class="ss" text-anchor="middle">ZU-MS3</text>
        </a>
      </symbol>
      <symbol id="def30004950">
        <a xlink:href="http://evemaps.dotlan.net/system/0OTX-J" class="sys link-5-30004950" target="_top">
          <rect id="rect30004950" x="4" y="3.5" rx="11" ry="11" width="50" height="22" class="s" />
          <text x="28" y="14" class="ss" text-anchor="middle">0OTX-J</text>
        </a>
        <rect x="49.6" y="9.5" height="11" width="11" class="om" />
        <polygon points="51.8,15 58.4,11.7 58.4,18.3 51.8,15" class="o1" />
        <rect x="49.6" y="9.5" height="11" width="11" class="oo" />
      </symbol>
      <symbol id="def30004949">
        <a xlink:href="http://evemaps.dotlan.net/system/48I1-X" class="sys link-5-30004949" target="_top">
          <rect id="ice30004949" x="1" y="0.5" rx="14" ry="13" width="56" height="28" class="i" />
          <rect id="rect30004949" x="4" y="3.5" rx="11" ry="11" width="50" height="22" class="s" />
          <text x="28" y="14" class="ss" text-anchor="middle">48I1-X</text>
        </a>
        <rect x="49.6" y="9.5" height="11" width="11" class="om" />
        <polygon points="51.8,15 58.4,11.7 58.4,18.3 51.8,15" class="o1" />
        <rect x="49.6" y="9.5" height="11" width="11" class="oo" />
      </symbol>
      <symbol id="def30004939">
        <a xlink:href="http://evemaps.dotlan.net/system/CW9-1Y" class="sys link-5-30004939" target="_top">
          <rect id="rect30004939" x="4" y="3.5" rx="11" ry="11" width="50" height="22" class="s" />
          <text x="28" y="14" class="ss" text-anchor="middle">CW9-1Y</text>
        </a>
      </symbol>
      <symbol id="def30004954">
        <a xlink:href="http://evemaps.dotlan.net/system/08S-39" class="sys link-5-30004954" target="_top">
          <rect id="rect30004954" x="4" y="3.5" rx="11" ry="11" width="50" height="22" class="s" />
          <text x="28" y="14" class="ss" text-anchor="middle">08S-39</text>
        </a>
        <rect x="49.6" y="9.5" height="11" width="11" class="om" />
        <polygon points="51.8,15 58.4,11.7 58.4,18.3 51.8,15" class="o1" />
        <rect x="49.6" y="9.5" height="11" width="11" class="oo" />
      </symbol>
      <symbol id="def30004948">
        <a xlink:href="http://evemaps.dotlan.net/system/E-DOF2" class="sys link-5-30004948" target="_top">
          <rect id="rect30004948" x="4" y="3.5" rx="11" ry="11" width="50" height="22" class="s" />
          <text x="28" y="14" class="ss" text-anchor="middle">E-DOF2</text>
        </a>
        <rect x="49.6" y="9.5" height="11" width="11" class="oa" />
        <polygon points="51.8,15 58.4,11.7 58.4,18.3 51.8,15" class="o1" />
        <rect x="49.6" y="9.5" height="11" width="11" class="oo" />
      </symbol>
      <symbol id="def30004936">
        <a xlink:href="http://evemaps.dotlan.net/system/VYO-68" class="sys link-5-30004936" target="_top">
          <rect id="rect30004936" x="4" y="3.5" rx="11" ry="11" width="50" height="22" class="s" />
          <text x="28" y="14" class="ss" text-anchor="middle">VYO-68</text>
        </a>
        <rect x="49.6" y="9.5" height="11" width="11" class="oa" />
        <polygon points="51.8,15 58.4,11.7 58.4,18.3 51.8,15" class="o1" />
        <rect x="49.6" y="9.5" height="11" width="11" class="oo" />
      </symbol>
      <symbol id="def30004947">
        <a xlink:href="http://evemaps.dotlan.net/system/0A-KZ0" class="sys link-5-30004947" target="_top">
          <rect id="rect30004947" x="4" y="3.5" rx="11" ry="11" width="50" height="22" class="s" />
          <text x="28" y="14" class="ss" text-anchor="middle">0A-KZ0</text>
        </a>
        <rect x="49.6" y="9.5" height="11" width="11" class="oa" />
        <polygon points="51.8,15 58.4,11.7 58.4,18.3 51.8,15" class="o1" />
        <rect x="49.6" y="9.5" height="11" width="11" class="oo" />
      </symbol>
      <symbol id="def30004938">
        <a xlink:href="http://evemaps.dotlan.net/system/UR-E46" class="sys link-5-30004938" target="_top">
          <rect id="rect30004938" x="4" y="3.5" rx="11" ry="11" width="50" height="22" class="s" />
          <text x="28" y="14" class="ss" text-anchor="middle">UR-E46</text>
        </a>
      </symbol>
      <symbol id="def30004937">
        <a xlink:href="http://evemaps.dotlan.net/system/TCAG-3" class="sys link-5-30004937" target="_top">
          <rect id="rect30004937" x="4" y="3.5" rx="11" ry="11" width="50" height="22" class="s" />
          <text x="28" y="14" class="ss" text-anchor="middle">TCAG-3</text>
        </a>
      </symbol>
      <symbol id="def30004934">
        <a xlink:href="http://evemaps.dotlan.net/system/MG0-RD" class="sys link-5-30004934" target="_top">
          <rect id="rect30004934" x="4" y="3.5" rx="11" ry="11" width="50" height="22" class="s" />
          <text x="28" y="14" class="ss" text-anchor="middle">MG0-RD</text>
        </a>
      </symbol>
      <symbol id="def30004935">
        <a xlink:href="http://evemaps.dotlan.net/system/TPAR-G" class="sys link-5-30004935" target="_top">
          <rect id="ice30004935" x="1" y="0.5" rx="14" ry="13" width="56" height="28" class="i" />
          <rect id="rect30004935" x="4" y="3.5" rx="11" ry="11" width="50" height="22" class="s" />
          <text x="28" y="14" class="ss" text-anchor="middle">TPAR-G</text>
        </a>
        <rect x="49.6" y="9.5" height="11" width="11" class="o" />
        <polygon points="49.6,9.5 60.6,9.5 55.1,15 49.6,9.5" class="v1" />
        <polygon points="60.6,9.5 55.1,15 60.6,20.5 60.6,9.5" class="v2" />
        <rect x="52.9" y="12.8" height="4.4" width="4.4" class="o2" />
        <rect x="49.6" y="9.5" height="11" width="11" class="oo" />
      </symbol>
      <symbol id="def30004932">
        <a xlink:href="http://evemaps.dotlan.net/system/XZ-SKZ" class="sys link-5-30004932" target="_top">
          <rect id="rect30004932" x="4" y="3.5" rx="11" ry="11" width="50" height="22" class="s" />
          <text x="28" y="14" class="ss" text-anchor="middle">XZ-SKZ</text>
        </a>
        <rect x="49.6" y="9.5" height="11" width="11" class="og" />
        <polygon points="51.8,15 58.4,11.7 58.4,18.3 51.8,15" class="o1" />
        <rect x="49.6" y="9.5" height="11" width="11" class="oo" />
      </symbol>
      <symbol id="def30004930">
        <a xlink:href="http://evemaps.dotlan.net/system/0-NTIS" class="sys link-5-30004930" target="_top">
          <rect id="rect30004930" x="4" y="3.5" rx="11" ry="11" width="50" height="22" class="s" />
          <text x="28" y="14" class="ss" text-anchor="middle">0-NTIS</text>
        </a>
      </symbol>
      <symbol id="def30004933">
        <a xlink:href="http://evemaps.dotlan.net/system/I6M-9U" class="sys link-5-30004933" target="_top">
          <rect id="rect30004933" x="4" y="3.5" rx="11" ry="11" width="50" height="22" class="s" />
          <text x="28" y="14" class="ss" text-anchor="middle">I6M-9U</text>
        </a>
      </symbol>
      <symbol id="def30004945">
        <a xlink:href="http://evemaps.dotlan.net/system/G-C8QO" class="sys link-5-30004945" target="_top">
          <rect id="rect30004945" x="4" y="3.5" rx="11" ry="11" width="50" height="22" class="s" />
          <text x="28" y="14" class="ss" text-anchor="middle">G-C8QO</text>
        </a>
      </symbol>
      <symbol id="def30004928">
        <a xlink:href="http://evemaps.dotlan.net/system/35-JWD" class="sys link-5-30004928" target="_top">
          <rect id="rect30004928" x="4" y="3.5" rx="11" ry="11" width="50" height="22" class="s" />
          <text x="28" y="14" class="ss" text-anchor="middle">35-JWD</text>
        </a>
      </symbol>
      <symbol id="def30004927">
        <a xlink:href="http://evemaps.dotlan.net/system/L-YMYU" class="sys link-5-30004927" target="_top">
          <rect id="rect30004927" x="4" y="3.5" rx="11" ry="11" width="50" height="22" class="s" />
          <text x="28" y="14" class="ss" text-anchor="middle">L-YMYU</text>
        </a>
      </symbol>
      <symbol id="def30004929">
        <a xlink:href="http://evemaps.dotlan.net/system/F-M1FU" class="sys link-5-30004929" target="_top">
          <rect id="rect30004929" x="4" y="3.5" rx="11" ry="11" width="50" height="22" class="s" />
          <text x="28" y="14" class="ss" text-anchor="middle">F-M1FU</text>
        </a>
      </symbol>
      <symbol id="def30004931">
        <a xlink:href="http://evemaps.dotlan.net/system/VR-YIQ" class="sys link-5-30004931" target="_top">
          <rect id="rect30004931" x="4" y="3.5" rx="11" ry="11" width="50" height="22" class="s" />
          <text x="28" y="14" class="ss" text-anchor="middle">VR-YIQ</text>
        </a>
      </symbol>
      <symbol id="def30004942">
        <a xlink:href="http://evemaps.dotlan.net/system/8KR9-5" class="sys link-5-30004942" target="_top">
          <rect id="ice30004942" x="1" y="0.5" rx="14" ry="13" width="56" height="28" class="i" />
          <rect id="rect30004942" x="4" y="3.5" rx="11" ry="11" width="50" height="22" class="s" />
          <text x="28" y="14" class="ss" text-anchor="middle">8KR9-5</text>
        </a>
      </symbol>
      <symbol id="def30004940">
        <a xlink:href="http://evemaps.dotlan.net/system/1-NJLK" class="sys link-5-30004940" target="_top">
          <rect id="rect30004940" x="4" y="3.5" rx="11" ry="11" width="50" height="22" class="s" />
          <text x="28" y="14" class="ss" text-anchor="middle">1-NJLK</text>
        </a>
        <rect x="49.6" y="9.5" height="11" width="11" class="og" />
        <polygon points="51.8,15 58.4,11.7 58.4,18.3 51.8,15" class="o1" />
        <rect x="49.6" y="9.5" height="11" width="11" class="oo" />
      </symbol>
      <symbol id="def30004943">
        <a xlink:href="http://evemaps.dotlan.net/system/VQE-CN" class="sys link-5-30004943" target="_top">
          <rect id="rect30004943" x="4" y="3.5" rx="11" ry="11" width="50" height="22" class="s" />
          <text x="28" y="14" class="ss" text-anchor="middle">VQE-CN</text>
        </a>
        <rect x="49.6" y="9.5" height="11" width="11" class="oa" />
        <polygon points="51.8,15 58.4,11.7 58.4,18.3 51.8,15" class="o1" />
        <rect x="49.6" y="9.5" height="11" width="11" class="oo" />
      </symbol>
      <symbol id="def30004941">
        <a xlink:href="http://evemaps.dotlan.net/system/Y-CWQY" class="sys link-5-30004941" target="_top">
          <rect id="ice30004941" x="1" y="0.5" rx="14" ry="13" width="56" height="28" class="i" />
          <rect id="rect30004941" x="4" y="3.5" rx="11" ry="11" width="50" height="22" class="s" />
          <text x="28" y="14" class="ss" text-anchor="middle">Y-CWQY</text>
        </a>
        <rect x="49.6" y="9.5" height="11" width="11" class="om" />
        <polygon points="51.8,15 58.4,11.7 58.4,18.3 51.8,15" class="o1" />
        <rect x="49.6" y="9.5" height="11" width="11" class="oo" />
      </symbol>
      <symbol id="def30004944">
        <a xlink:href="http://evemaps.dotlan.net/system/L5D-ZL" class="sys link-5-30004944" target="_top">
          <rect id="rect30004944" x="4" y="3.5" rx="11" ry="11" width="50" height="22" class="s" />
          <text x="28" y="14" class="ss" text-anchor="middle">L5D-ZL</text>
        </a>
        <rect x="49.6" y="9.5" height="11" width="11" class="oa" />
        <polygon points="51.8,15 58.4,11.7 58.4,18.3 51.8,15" class="o1" />
        <rect x="49.6" y="9.5" height="11" width="11" class="oo" />
      </symbol>
      <symbol id="def30004946">
        <a xlink:href="http://evemaps.dotlan.net/system/EIMJ-M" class="sys link-5-30004946" target="_top">
          <rect id="rect30004946" x="4" y="3.5" rx="11" ry="11" width="50" height="22" class="s" />
          <text x="28" y="14" class="ss" text-anchor="middle">EIMJ-M</text>
        </a>
        <rect x="49.6" y="9.5" height="11" width="11" class="oc" />
        <polygon points="51.8,15 58.4,11.7 58.4,18.3 51.8,15" class="o1" />
        <rect x="49.6" y="9.5" height="11" width="11" class="oo" />
      </symbol>
      <symbol id="def30004800">
        <a xlink:href="http://evemaps.dotlan.net/map/Delve/LWX-93" class="sys link-5-30004800" target="_top">
          <rect id="rect30004800" x="3.5" y="3.5" width="50" height="22" class="e" />
          <text x="28" y="14" class="es" text-anchor="middle">LWX-93</text>
          <text x="28" y="21.7" class="er" text-anchor="middle">Delve</text>
        </a>
      </symbol>
      <symbol id="def30001926">
        <a xlink:href="http://evemaps.dotlan.net/map/Stain/CJF-1P" class="sys link-5-30001926" target="_top">
          <rect id="rect30001926" x="3.5" y="3.5" width="50" height="22" class="e" />
          <text x="28" y="14" class="es" text-anchor="middle">CJF-1P</text>
          <text x="28" y="21.7" class="er" text-anchor="middle">Stain</text>
        </a>
      </symbol>
      <symbol id="def30004696">
        <a xlink:href="http://evemaps.dotlan.net/map/Paragon_Soul/G-M4GK" class="sys link-5-30004696" target="_top">
          <rect id="rect30004696" x="3.5" y="3.5" width="50" height="22" class="e" />
          <text x="28" y="14" class="es" text-anchor="middle">G-M4GK</text>
          <text x="28" y="21.7" class="er" text-anchor="middle">Paragon Soul</text>
        </a>
      </symbol>
      <symbol id="def30004801">
        <a xlink:href="http://evemaps.dotlan.net/map/Delve/1-2J4P" class="sys link-5-30004801" target="_top">
          <rect id="rect30004801" x="3.5" y="3.5" width="50" height="22" class="e" />
          <text x="28" y="14" class="es" text-anchor="middle">1-2J4P</text>
          <text x="28" y="21.7" class="er" text-anchor="middle">Delve</text>
        </a>
        <rect x="49.6" y="9.5" height="11" width="11" class="oa" />
        <polygon points="51.8,15 58.4,11.7 58.4,18.3 51.8,15" class="o1" />
        <rect x="49.6" y="9.5" height="11" width="11" class="oo" />
      </symbol>
      <symbol id="defCampaign" width="85" height="46">
        <rect x="0" y="0" width="85" height="46" class="cam" />
      </symbol>
      <symbol id="defCampaignActive" width="85" height="46">
        <rect x="0" y="0" width="85" height="46" class="cam-active" />
      </symbol>
      <radialGradient id="conBg">
        <stop offset="50%" stop-color="#FFA0FF" />
        <stop offset="95%" stop-color="#FFA0FF" stop-opacity="0" />
      </radialGradient>
      <radialGradient id="camBg">
        <stop offset="30%" stop-color="#FF8800" stop-opacity="1" />
        <stop offset="95%" stop-color="#FF8800" stop-opacity="0" />
      </radialGradient>
      <radialGradient id="camActiveBg">
        <stop offset="40%" stop-color="#FF0000" stop-opacity="1" />
        <stop offset="95%" stop-color="#FF0000" stop-opacity="0" />
      </radialGradient>
      <radialGradient id="incBg">
        <stop offset="50%" stop-color="#AFCE00" />
        <stop offset="100%" stop-color="#AFCE00" stop-opacity="0" />
      </radialGradient>
      <radialGradient id="incStBg">
        <stop offset="50%" stop-color="#808000" />
        <stop offset="100%" stop-color="#808000" stop-opacity="0" />
      </radialGradient>
    </defs>
    <text x="10" y="20" id="debug" style="fill: #888888;"></text>
    <g id="glow"></g>
    <g id="campaigns"></g>
    <g id="jumps">
      <line id="j-30004927-30004801" x1="768.5" y1="99.5" x2="778.5" y2="39.5" class="jr" />
      <line id="j-30004928-30004927" x1="768.5" y1="99.5" x2="748.5" y2="139.5" class="j" />
      <line id="j-30004929-30004928" x1="748.5" y1="139.5" x2="773.5" y2="189.5" class="j" />
      <line id="j-30004930-30004928" x1="748.5" y1="139.5" x2="673.5" y2="184.5" class="j" />
      <line id="j-30004932-30004928" x1="748.5" y1="139.5" x2="653.5" y2="114.5" class="j" />
      <line id="j-30004931-30004929" x1="773.5" y1="189.5" x2="788.5" y2="239.5" class="j" />
      <line id="j-30004932-30004930" x1="673.5" y1="184.5" x2="653.5" y2="114.5" class="j" />
      <line id="j-30004933-30004930" x1="673.5" y1="184.5" x2="708.5" y2="239.5" class="j" />
      <line id="j-30004933-30004931" x1="788.5" y1="239.5" x2="708.5" y2="239.5" class="j" />
      <line id="j-30004940-30004931" x1="788.5" y1="239.5" x2="838.5" y2="314.5" class="jc" />
      <line id="j-30004932-30001926" x1="653.5" y1="114.5" x2="668.5" y2="34.5" class="jr" />
      <line id="j-30004934-30004933" x1="708.5" y1="239.5" x2="583.5" y2="329.5" class="jc" />
      <line id="j-30004935-30004934" x1="583.5" y1="329.5" x2="638.5" y2="384.5" class="j" />
      <line id="j-30004936-30004934" x1="583.5" y1="329.5" x2="488.5" y2="329.5" class="j" />
      <line id="j-30004937-30004935" x1="638.5" y1="384.5" x2="563.5" y2="394.5" class="j" />
      <line id="j-30004937-30004936" x1="488.5" y1="329.5" x2="563.5" y2="394.5" class="j" />
      <line id="j-30004939-30004936" x1="488.5" y1="329.5" x2="413.5" y2="289.5" class="j" />
      <line id="j-30004937-30004696" x1="563.5" y1="394.5" x2="698.5" y2="504.5" class="jr" />
      <line id="j-30004938-30004937" x1="563.5" y1="394.5" x2="538.5" y2="454.5" class="j" />
      <line id="j-30004947-30004938" x1="538.5" y1="454.5" x2="513.5" y2="519.5" class="jc" />
      <line id="j-30004955-30004939" x1="413.5" y1="289.5" x2="313.5" y2="179.5" class="jc" />
      <line id="j-30004941-30004940" x1="838.5" y1="314.5" x2="878.5" y2="379.5" class="j" />
      <line id="j-30004942-30004940" x1="838.5" y1="314.5" x2="798.5" y2="379.5" class="j" />
      <line id="j-30004945-30004940" x1="838.5" y1="314.5" x2="733.5" y2="314.5" class="j" />
      <line id="j-30004942-30004941" x1="878.5" y1="379.5" x2="798.5" y2="379.5" class="j" />
      <line id="j-30004943-30004941" x1="878.5" y1="379.5" x2="838.5" y2="439.5" class="j" />
      <line id="j-30004944-30004941" x1="878.5" y1="379.5" x2="928.5" y2="314.5" class="j" />
      <line id="j-30004946-30004941" x1="878.5" y1="379.5" x2="963.5" y2="379.5" class="j" />
      <line id="j-30004943-30004942" x1="798.5" y1="379.5" x2="838.5" y2="439.5" class="j" />
      <line id="j-30004948-30004947" x1="513.5" y1="519.5" x2="458.5" y2="579.5" class="j" />
      <line id="j-30004954-30004947" x1="513.5" y1="519.5" x2="428.5" y2="474.5" class="j" />
      <line id="j-30004949-30004948" x1="458.5" y1="579.5" x2="368.5" y2="509.5" class="j" />
      <line id="j-30004950-30004948" x1="458.5" y1="579.5" x2="348.5" y2="584.5" class="j" />
      <line id="j-30004950-30004949" x1="368.5" y1="509.5" x2="348.5" y2="584.5" class="j" />
      <line id="j-30004952-30004949" x1="368.5" y1="509.5" x2="268.5" y2="509.5" class="j" />
      <line id="j-30004951-30004950" x1="348.5" y1="584.5" x2="233.5" y2="569.5" class="j" />
      <line id="j-30004952-30004951" x1="233.5" y1="569.5" x2="268.5" y2="509.5" class="j" />
      <line id="j-30004953-30004951" x1="233.5" y1="569.5" x2="158.5" y2="579.5" class="j" />
      <line id="j-30004961-30004953" x1="158.5" y1="579.5" x2="63.5" y2="594.5" class="jc" />
      <line id="j-30004956-30004955" x1="313.5" y1="179.5" x2="238.5" y2="139.5" class="j" />
      <line id="j-30004957-30004956" x1="238.5" y1="139.5" x2="293.5" y2="69.5" class="j" />
      <line id="j-30004958-30004956" x1="238.5" y1="139.5" x2="143.5" y2="134.5" class="j" />
      <line id="j-30004960-30004956" x1="238.5" y1="139.5" x2="203.5" y2="74.5" class="j" />
      <line id="j-30004959-30004958" x1="143.5" y1="134.5" x2="68.5" y2="99.5" class="j" />
      <line id="j-30004960-30004800" x1="203.5" y1="74.5" x2="123.5" y2="39.5" class="jr" />
      <line id="j-30004962-30004961" x1="63.5" y1="594.5" x2="58.5" y2="644.5" class="j" />
      <line id="j-30004963-30004961" x1="63.5" y1="594.5" x2="48.5" y2="544.5" class="j" />
      <line id="j-30004965-30004962" x1="58.5" y1="644.5" x2="48.5" y2="694.5" class="j" />
      <line id="j-30004964-30004963" x1="48.5" y1="544.5" x2="33.5" y2="494.5" class="j" />
      <line id="j-30004966-30004965" x1="48.5" y1="694.5" x2="33.5" y2="739.5" class="j" />
    </g>
    <g id="sysuse">
      <use id="sys30004964" x="5" y="480" width="62.5" height="30" xlink:href="#def30004964" />
      <use id="sys30004966" x="5" y="725" width="62.5" height="30" xlink:href="#def30004966" />
      <use id="sys30004963" x="20" y="530" width="62.5" height="30" xlink:href="#def30004963" />
      <use id="sys30004965" x="20" y="680" width="62.5" height="30" xlink:href="#def30004965" />
      <use id="sys30004962" x="30" y="630" width="62.5" height="30" xlink:href="#def30004962" />
      <use id="sys30004961" x="35" y="580" width="62.5" height="30" xlink:href="#def30004961" />
      <use id="sys30004959" x="40" y="85" width="62.5" height="30" xlink:href="#def30004959" />
      <use id="sys30004958" x="115" y="120" width="62.5" height="30" xlink:href="#def30004958" />
      <use id="sys30004953" x="130" y="565" width="62.5" height="30" xlink:href="#def30004953" />
      <use id="sys30004960" x="175" y="60" width="62.5" height="30" xlink:href="#def30004960" />
      <use id="sys30004951" x="205" y="555" width="62.5" height="30" xlink:href="#def30004951" />
      <use id="sys30004956" x="210" y="125" width="62.5" height="30" xlink:href="#def30004956" />
      <use id="sys30004952" x="240" y="495" width="62.5" height="30" xlink:href="#def30004952" />
      <use id="sys30004957" x="265" y="55" width="62.5" height="30" xlink:href="#def30004957" />
      <use id="sys30004955" x="285" y="165" width="62.5" height="30" xlink:href="#def30004955" />
      <use id="sys30004950" x="320" y="570" width="62.5" height="30" xlink:href="#def30004950" />
      <use id="sys30004949" x="340" y="495" width="62.5" height="30" xlink:href="#def30004949" />
      <use id="sys30004939" x="385" y="275" width="62.5" height="30" xlink:href="#def30004939" />
      <use id="sys30004954" x="400" y="460" width="62.5" height="30" xlink:href="#def30004954" />
      <use id="sys30004948" x="430" y="565" width="62.5" height="30" xlink:href="#def30004948" />
      <use id="sys30004936" x="460" y="315" width="62.5" height="30" xlink:href="#def30004936" />
      <use id="sys30004947" x="485" y="505" width="62.5" height="30" xlink:href="#def30004947" />
      <use id="sys30004938" x="510" y="440" width="62.5" height="30" xlink:href="#def30004938" />
      <use id="sys30004937" x="535" y="380" width="62.5" height="30" xlink:href="#def30004937" />
      <use id="sys30004934" x="555" y="315" width="62.5" height="30" xlink:href="#def30004934" />
      <use id="sys30004935" x="610" y="370" width="62.5" height="30" xlink:href="#def30004935" />
      <use id="sys30004932" x="625" y="100" width="62.5" height="30" xlink:href="#def30004932" />
      <use id="sys30004930" x="645" y="170" width="62.5" height="30" xlink:href="#def30004930" />
      <use id="sys30004933" x="680" y="225" width="62.5" height="30" xlink:href="#def30004933" />
      <use id="sys30004945" x="705" y="300" width="62.5" height="30" xlink:href="#def30004945" />
      <use id="sys30004928" x="720" y="125" width="62.5" height="30" xlink:href="#def30004928" />
      <use id="sys30004927" x="740" y="85" width="62.5" height="30" xlink:href="#def30004927" />
      <use id="sys30004929" x="745" y="175" width="62.5" height="30" xlink:href="#def30004929" />
      <use id="sys30004931" x="760" y="225" width="62.5" height="30" xlink:href="#def30004931" />
      <use id="sys30004942" x="770" y="365" width="62.5" height="30" xlink:href="#def30004942" />
      <use id="sys30004940" x="810" y="300" width="62.5" height="30" xlink:href="#def30004940" />
      <use id="sys30004943" x="810" y="425" width="62.5" height="30" xlink:href="#def30004943" />
      <use id="sys30004941" x="850" y="365" width="62.5" height="30" xlink:href="#def30004941" />
      <use id="sys30004944" x="900" y="300" width="62.5" height="30" xlink:href="#def30004944" />
      <use id="sys30004946" x="935" y="365" width="62.5" height="30" xlink:href="#def30004946" />
      <use id="sys30004800" x="95" y="25" width="62.5" height="30" xlink:href="#def30004800" />
      <use id="sys30001926" x="640" y="20" width="62.5" height="30" xlink:href="#def30001926" />
      <use id="sys30004696" x="670" y="490" width="62.5" height="30" xlink:href="#def30004696" />
      <use id="sys30004801" x="750" y="25" width="62.5" height="30" xlink:href="#def30004801" />
    </g>
    <g id="highlights"></g>
    <g id="notes"></g>
    <g id="standings"></g>
  </g>
  <g id="controls" style="display: none;">
    <a xlink:title="Zoom In">
      <image id="zoom_in" x="5" y="5" width="16" height="16" xlink:href="http://i.dotlan.net/images/icons/magnifier_zoom_in.png" style="cursor: pointer;" />
    </a>
    <a xlink:title="Zoom Out">
      <image id="zoom_out" x="5" y="23" width="16" height="16" xlink:href="http://i.dotlan.net/images/icons/magnifier_zoom_out.png" style="cursor: pointer;" />
    </a>
    <a xlink:title="Enable Mousewheel Support">
      <image id="wheel_on" x="5" y="42" width="16" height="16" xlink:href="http://i.dotlan.net/images/icons/mouse_add.png" style="cursor: pointer;" />
    </a>
    <a xlink:title="Disable Mousewheel Support">
      <image id="wheel_off" x="5" y="42" width="16" height="16" xlink:href="http://i.dotlan.net/images/icons/mouse_delete.png" style="cursor: pointer; display: none;" />
    </a>
  </g>
  <script type="text/javascript" xlink:href="http://s.dotlan.net/lib/dotSvg.js?1440663978"></script>
  <script type="text/javascript"><![CDATA[

function init(E) {
	SVGMap.init(E);
}

]]></script>
</svg>